# MagicaVoxel @ Ephtracy

# group
o 

# material
mtllib chair.mtl
usemtl palette

# normals
vn -1 0 0
vn 1 0 0
vn 0 0 1
vn 0 0 -1
vn 0 -1 0
vn 0 1 0

# texcoords
vt 0.927734 0.5
vt 0.931641 0.5
vt 0.958984 0.5
vt 0.962891 0.5

# verts
v -0.4 0 0.4
v -0.4 0 0.3
v -0.4 0 -0.3
v -0.4 0 -0.4
v -0.4 0.2 0.3
v -0.4 0.2 -0.3
v -0.4 0.3 0.4
v -0.4 0.3 0.3
v -0.4 0.4 0.3
v -0.4 0.4 -0.3
v -0.4 0.5 -0.3
v -0.4 0.5 -0.4
v -0.3 0.5 -0.3
v -0.3 0.5 -0.4
v -0.3 1 -0.3
v -0.3 1 -0.4
v -0.2 1 -0.3
v -0.2 1 -0.4
v -0.2 1.3 -0.3
v -0.2 1.3 -0.4
v 0.4 0 0.4
v 0.4 0 0.3
v 0.4 0 -0.3
v 0.4 0 -0.4
v 0.4 0.2 0.4
v 0.4 0.2 0.3
v 0.4 0.3 -0.3
v 0.4 0.3 -0.4
v -0.3 0 0.4
v -0.3 0 0.3
v -0.3 0 -0.3
v -0.3 0 -0.4
v -0.3 0.2 0.4
v -0.3 0.2 0.3
v -0.3 0.2 -0.3
v -0.3 0.3 0.3
v -0.3 0.3 -0.3
v -0.3 0.3 -0.4
v 0.3 1 -0.3
v 0.3 1 -0.4
v 0.3 1.3 -0.3
v 0.3 1.3 -0.4
v 0.4 0.4 -0.3
v 0.4 0.4 -0.4
v 0.4 0.5 -0.3
v 0.4 0.5 -0.4
v 0.4 1 -0.3
v 0.4 1 -0.4
v 0.5 0 0.4
v 0.5 0 0.3
v 0.5 0 -0.3
v 0.5 0 -0.4
v 0.5 0.3 0.4
v 0.5 0.3 0.3
v 0.5 0.3 -0.3
v 0.5 0.4 0.3
v 0.5 0.4 -0.4
v -0.4 0 0.4
v -0.4 0.3 0.4
v -0.3 0 0.4
v -0.3 0.2 0.4
v 0.4 0 0.4
v 0.4 0.2 0.4
v 0.5 0 0.4
v 0.5 0.3 0.4
v -0.4 0.3 0.3
v -0.4 0.4 0.3
v -0.3 0.3 0.3
v -0.3 0.4 0.3
v 0.4 0.3 0.3
v 0.4 0.4 0.3
v 0.5 0.3 0.3
v 0.5 0.4 0.3
v -0.4 0 -0.3
v -0.4 0.2 -0.3
v -0.4 0.4 -0.3
v -0.4 0.5 -0.3
v -0.3 0 -0.3
v -0.3 0.2 -0.3
v -0.3 0.4 -0.3
v -0.3 0.5 -0.3
v -0.3 1 -0.3
v -0.2 0.8 -0.3
v -0.2 1 -0.3
v -0.2 1.3 -0.3
v -0.1 0.7 -0.3
v -0.1 0.8 -0.3
v 0 0.5 -0.3
v 0 0.7 -0.3
v 0.1 0.5 -0.3
v 0.1 0.7 -0.3
v 0.2 0.7 -0.3
v 0.2 0.8 -0.3
v 0.3 0.8 -0.3
v 0.3 1 -0.3
v 0.3 1.3 -0.3
v 0.4 0 -0.3
v 0.4 0.3 -0.3
v 0.4 0.4 -0.3
v 0.4 0.5 -0.3
v 0.4 1 -0.3
v 0.5 0 -0.3
v 0.5 0.3 -0.3
v -0.4 0 0.3
v -0.4 0.2 0.3
v -0.3 0 0.3
v -0.3 0.2 0.3
v -0.3 0.3 0.3
v 0.4 0 0.3
v 0.4 0.2 0.3
v 0.4 0.3 0.3
v 0.5 0 0.3
v 0.5 0.3 0.3
v -0.4 0 -0.4
v -0.4 0.5 -0.4
v -0.3 0 -0.4
v -0.3 0.3 -0.4
v -0.3 0.5 -0.4
v -0.3 1 -0.4
v -0.2 0.8 -0.4
v -0.2 1 -0.4
v -0.2 1.3 -0.4
v -0.1 0.7 -0.4
v -0.1 0.8 -0.4
v 0 0.5 -0.4
v 0 0.7 -0.4
v 0.1 0.5 -0.4
v 0.1 0.7 -0.4
v 0.2 0.7 -0.4
v 0.2 0.8 -0.4
v 0.3 0.8 -0.4
v 0.3 1 -0.4
v 0.3 1.3 -0.4
v 0.4 0 -0.4
v 0.4 0.3 -0.4
v 0.4 0.4 -0.4
v 0.4 0.5 -0.4
v 0.4 1 -0.4
v 0.5 0 -0.4
v 0.5 0.4 -0.4
v -0.4 0 0.4
v -0.3 0 0.4
v 0.4 0 0.4
v 0.5 0 0.4
v -0.4 0 0.3
v -0.3 0 0.3
v 0.4 0 0.3
v 0.5 0 0.3
v -0.4 0 -0.3
v -0.3 0 -0.3
v 0.4 0 -0.3
v 0.5 0 -0.3
v -0.4 0 -0.4
v -0.3 0 -0.4
v 0.4 0 -0.4
v 0.5 0 -0.4
v -0.3 0.2 0.4
v 0.4 0.2 0.4
v -0.4 0.2 0.3
v -0.3 0.2 0.3
v 0.4 0.2 0.3
v -0.4 0.2 -0.3
v -0.3 0.2 -0.3
v -0.3 0.3 0.3
v 0.4 0.3 0.3
v 0.5 0.3 0.3
v -0.3 0.3 -0.3
v 0.4 0.3 -0.3
v 0.5 0.3 -0.3
v -0.3 0.3 -0.4
v 0.4 0.3 -0.4
v -0.4 0.3 0.4
v 0.5 0.3 0.4
v -0.4 0.3 0.3
v -0.3 0.3 0.3
v 0.4 0.3 0.3
v 0.5 0.3 0.3
v -0.4 0.4 0.3
v -0.3 0.4 0.3
v 0.4 0.4 0.3
v 0.5 0.4 0.3
v -0.4 0.4 -0.3
v -0.3 0.4 -0.3
v 0.4 0.4 -0.3
v 0.4 0.4 -0.4
v 0.5 0.4 -0.4
v -0.4 0.5 -0.3
v -0.3 0.5 -0.3
v -0.4 0.5 -0.4
v -0.3 0.5 -0.4
v -0.3 1 -0.3
v -0.2 1 -0.3
v 0.3 1 -0.3
v 0.4 1 -0.3
v -0.3 1 -0.4
v -0.2 1 -0.4
v 0.3 1 -0.4
v 0.4 1 -0.4
v -0.2 1.3 -0.3
v 0.3 1.3 -0.3
v -0.2 1.3 -0.4
v 0.3 1.3 -0.4

# faces
f 5/2/1 2/2/1 1/2/1
f 6/2/1 4/2/1 3/2/1
f 7/2/1 5/2/1 1/2/1
f 7/2/1 6/2/1 5/2/1
f 8/2/1 6/2/1 7/2/1
f 9/2/1 6/2/1 8/2/1
f 10/2/1 4/2/1 6/2/1
f 10/2/1 6/2/1 9/2/1
f 11/2/1 4/2/1 10/2/1
f 12/2/1 4/2/1 11/2/1
f 15/1/1 14/1/1 13/1/1
f 16/1/1 14/1/1 15/1/1
f 19/3/1 18/3/1 17/3/1
f 20/3/1 18/3/1 19/3/1
f 25/2/1 22/2/1 21/2/1
f 26/2/1 22/2/1 25/2/1
f 27/2/1 24/2/1 23/2/1
f 28/2/1 24/2/1 27/2/1
f 29/2/2 30/2/2 33/2/2
f 33/2/2 30/2/2 34/2/2
f 31/2/2 32/2/2 35/2/2
f 34/2/2 35/2/2 36/2/2
f 35/2/2 32/2/2 37/2/2
f 36/2/2 35/2/2 37/2/2
f 37/2/2 32/2/2 38/2/2
f 39/3/2 40/3/2 41/3/2
f 41/3/2 40/3/2 42/3/2
f 43/2/2 44/2/2 45/2/2
f 45/2/2 44/2/2 46/2/2
f 45/1/2 46/1/2 47/1/2
f 47/1/2 46/1/2 48/1/2
f 49/2/2 50/2/2 53/2/2
f 53/2/2 50/2/2 54/2/2
f 51/2/2 52/2/2 55/2/2
f 54/2/2 55/2/2 56/2/2
f 55/2/2 52/2/2 57/2/2
f 56/2/2 55/2/2 57/2/2
f 60/2/3 59/2/3 58/2/3
f 61/2/3 59/2/3 60/2/3
f 63/2/3 59/2/3 61/2/3
f 64/2/3 63/2/3 62/2/3
f 65/2/3 59/2/3 63/2/3
f 65/2/3 63/2/3 64/2/3
f 68/2/3 67/2/3 66/2/3
f 69/2/3 67/2/3 68/2/3
f 70/4/3 69/4/3 68/4/3
f 71/4/3 69/4/3 70/4/3
f 72/2/3 71/2/3 70/2/3
f 73/2/3 71/2/3 72/2/3
f 78/2/3 75/2/3 74/2/3
f 79/2/3 75/2/3 78/2/3
f 80/2/3 77/2/3 76/2/3
f 81/2/3 77/2/3 80/2/3
f 83/1/3 82/1/3 81/1/3
f 84/1/3 82/1/3 83/1/3
f 86/1/3 83/1/3 81/1/3
f 87/3/3 85/3/3 84/3/3
f 87/1/3 83/1/3 86/1/3
f 87/3/3 84/3/3 83/3/3
f 88/2/3 81/2/3 80/2/3
f 88/1/3 86/1/3 81/1/3
f 89/3/3 87/3/3 86/3/3
f 89/1/3 86/1/3 88/1/3
f 90/2/3 88/2/3 80/2/3
f 90/3/3 89/3/3 88/3/3
f 91/3/3 87/3/3 89/3/3
f 91/3/3 89/3/3 90/3/3
f 92/1/3 91/1/3 90/1/3
f 92/3/3 87/3/3 91/3/3
f 93/3/3 85/3/3 87/3/3
f 93/3/3 87/3/3 92/3/3
f 94/1/3 93/1/3 92/1/3
f 94/3/3 85/3/3 93/3/3
f 95/3/3 85/3/3 94/3/3
f 96/3/3 85/3/3 95/3/3
f 99/2/3 90/2/3 80/2/3
f 100/1/3 92/1/3 90/1/3
f 100/2/3 90/2/3 99/2/3
f 100/1/3 94/1/3 92/1/3
f 100/1/3 95/1/3 94/1/3
f 101/1/3 95/1/3 100/1/3
f 102/2/3 98/2/3 97/2/3
f 103/2/3 98/2/3 102/2/3
f 104/2/4 105/2/4 106/2/4
f 106/2/4 105/2/4 107/2/4
f 107/2/4 108/2/4 110/2/4
f 110/2/4 108/2/4 111/2/4
f 109/2/4 110/2/4 112/2/4
f 110/2/4 111/2/4 112/2/4
f 112/2/4 111/2/4 113/2/4
f 114/2/4 115/2/4 116/2/4
f 116/2/4 115/2/4 117/2/4
f 117/2/4 115/2/4 118/2/4
f 118/1/4 119/1/4 120/1/4
f 120/1/4 119/1/4 121/1/4
f 118/1/4 120/1/4 123/1/4
f 121/3/4 122/3/4 124/3/4
f 123/1/4 120/1/4 124/1/4
f 120/3/4 121/3/4 124/3/4
f 117/2/4 118/2/4 125/2/4
f 118/1/4 123/1/4 125/1/4
f 123/3/4 124/3/4 126/3/4
f 125/1/4 123/1/4 126/1/4
f 117/2/4 125/2/4 127/2/4
f 125/3/4 126/3/4 127/3/4
f 126/3/4 124/3/4 128/3/4
f 127/3/4 126/3/4 128/3/4
f 127/1/4 128/1/4 129/1/4
f 128/3/4 124/3/4 129/3/4
f 124/3/4 122/3/4 130/3/4
f 129/3/4 124/3/4 130/3/4
f 129/1/4 130/1/4 131/1/4
f 130/3/4 122/3/4 131/3/4
f 131/3/4 122/3/4 132/3/4
f 132/3/4 122/3/4 133/3/4
f 117/2/4 127/2/4 135/2/4
f 135/2/4 127/2/4 136/2/4
f 127/1/4 129/1/4 137/1/4
f 136/2/4 127/2/4 137/2/4
f 129/1/4 131/1/4 137/1/4
f 131/1/4 132/1/4 137/1/4
f 137/1/4 132/1/4 138/1/4
f 135/2/4 136/2/4 139/2/4
f 134/2/4 135/2/4 139/2/4
f 139/2/4 136/2/4 140/2/4
f 145/2/5 142/2/5 141/2/5
f 146/2/5 142/2/5 145/2/5
f 147/2/5 144/2/5 143/2/5
f 148/2/5 144/2/5 147/2/5
f 153/2/5 150/2/5 149/2/5
f 154/2/5 150/2/5 153/2/5
f 155/2/5 152/2/5 151/2/5
f 156/2/5 152/2/5 155/2/5
f 160/2/5 158/2/5 157/2/5
f 161/2/5 158/2/5 160/2/5
f 162/2/5 160/2/5 159/2/5
f 163/2/5 160/2/5 162/2/5
f 167/4/5 165/4/5 164/4/5
f 168/2/5 166/2/5 165/2/5
f 168/4/5 165/4/5 167/4/5
f 169/2/5 166/2/5 168/2/5
f 170/2/5 168/2/5 167/2/5
f 171/2/5 168/2/5 170/2/5
f 172/2/6 173/2/6 174/2/6
f 174/2/6 173/2/6 175/2/6
f 175/2/6 173/2/6 176/2/6
f 176/2/6 173/2/6 177/2/6
f 178/2/6 179/2/6 182/2/6
f 179/4/6 180/4/6 183/4/6
f 182/2/6 179/2/6 183/2/6
f 180/2/6 181/2/6 184/2/6
f 183/4/6 180/4/6 184/4/6
f 184/2/6 181/2/6 185/2/6
f 185/2/6 181/2/6 186/2/6
f 187/2/6 188/2/6 189/2/6
f 189/2/6 188/2/6 190/2/6
f 191/1/6 192/1/6 195/1/6
f 195/1/6 192/1/6 196/1/6
f 193/1/6 194/1/6 197/1/6
f 197/1/6 194/1/6 198/1/6
f 199/3/6 200/3/6 201/3/6
f 201/3/6 200/3/6 202/3/6
